SiMBALORD PRESENTS
... A UKB RELEASE


TiTLE: Batman Forever
TYPE : x264 DVDRip
SiZE : 1.01 GB (1,092,975,855 bytes)
PS3 : YES, TESTED


PLOT : Batman must battle Two-Face and
The Riddler with help of an amourous
psychologist and a young circus acrobat
who becomes his sidekick, Robin.


CAST :
Val Kilmer ... Batman / Bruce Wayne
Tommy Lee Jones ... Two-Face / Harvey Dent
Jim Carrey ... Riddler / Dr. Edward Nygma
Nicole Kidman ... Dr. Chase Meridian
Chris O'Donnell ... Robin / Dick Grayson
Michael Gough ... Alfred Pennyworth
Pat Hingle ... Commissioner James Gordon
Drew Barrymore ... Sugar
Debi Mazar ... Spice
Elizabeth Sanders ... Gossip Gerty
Rene Auberjonois ... Dr. Burton
Joe Grifasi ... Bank Guard
Philip Moon ... Male Newscaster
Jessica Tuck ... Female Newscaster
Dennis Paladino ... Crime Boss Moroni


iMDB : tt0112462


General
Complete name : Batman.Forever[x264][Simbalord.UKB.Release].mp4
Format : MPEG-4
Format profile : Base Media
Codec ID : isom
File size : 1.02 GiB
Duration : 2h 1mn
Overall bit rate : 1 199 Kbps
Movie name : Batman Forever (1995)
Writing application : Lavf52.66.0

Video
ID : 1
Format : AVC
Format/Info : Advanced Video Codec
Format profile : High@L4.1
Format settings, CABAC : Yes
Format settings, ReFrames : 3 frames
Codec ID : avc1
Codec ID/Info : Advanced Video Coding
Duration : 2h 1mn
Bit rate mode : Variable
Bit rate : 1 000 Kbps
Width : 720 pixels
Height : 408 pixels
Display aspect ratio : 16:9
Frame rate mode : Constant
Frame rate : 23.976 fps
Resolution : 8 bits
Colorimetry : 4:2:0
Scan type : Progressive
Bits/(Pixel*Frame) : 0.142
Stream size : 870 MiB (83%)
Writing library : x264 core 96
Encoding settings : cabac=1 / ref=3 / deblock=1:0:0 / analyse=0x3:0x133 / me=tesa / subme=10 /
psy=1 / psy_rd=1.00:0.00 / mixed_ref=1 / me_range=16 / chroma_me=1 /
trellis=2 / 8x8dct=1 / cqm=0 / deadzone=21,11 / fast_pskip=1 /
chroma_qp_offset=-2 / threads=6 / sliced_threads=0 / nr=0 / decimate=1 /
interlaced=0 / constrained_intra=0 / bframes=3 / b_pyramid=1 / b_adapt=2 /
b_bias=0 / direct=3 / weightb=1 / weightp=2 / keyint=230 / keyint_min=23 /
scenecut=40 / intra_refresh=0 / rc_lookahead=40 / rc=2pass / mbtree=1 /
bitrate=1000 / ratetol=0.2 / qcomp=0.60 / qpmin=10 / qpmax=51 / qpstep=4 /
cplxblur=20.0 / qblur=0.5 / vbv_maxrate=31250 / vbv_bufsize=31250 /
ip_ratio=1.40 / aq=1:1.00 / nal_hrd=none

Audio
ID : 2
Format : AAC
Format/Info : Advanced Audio Codec
Format version : Version 4
Format profile : LC
Format settings, SBR : No
Codec ID : 40
Duration : 2h 1mn
Bit rate mode : Variable
Bit rate : 192 Kbps
Channel(s) : 6 channels
Channel positions : Front: L C R, Rear: L R, LFE
Sampling rate : 48.0 KHz
Stream size : 167 MiB (16%)
